#tb 0: 513/5000
#media_type 0: video
#codec_id 0: rawvideo
#dimensions 0: 320x240
#sar 0: 0/1
#tb 1: 1/8000
#media_type 1: audio
#codec_id 1: pcm_s16le
#sample_rate 1: 8000
#channel_layout 1: 4
#channel_layout_name 1: mono
0,          0,          0,        1,   115200, 0x8ebcb7f8
1,          0,          0,     1024,     2048, 0x366ee71c
0,          1,          1,        1,   115200, 0x1fa8e673
1,       1024,       1024,     1024,     2048, 0xc62f0414
0,          2,          2,        1,   115200, 0xec07fb6a
1,       2048,       2048,     1024,     2048, 0x754e0f19
0,          3,          3,        1,   115200, 0x6773a8c3
1,       3072,       3072,     1024,     2048, 0x4a44152a
0,          4,          4,        1,   115200, 0x0d279643
1,       4096,       4096,     1024,     2048, 0x4fd3ff01
0,          5,          5,        1,   115200, 0xb33796e4
0,          6,          6,        1,   115200, 0xfe11fc79
1,       5120,       5120,     1024,     2048, 0x11c3fa1b
0,          7,          7,        1,   115200, 0x4ac8e31b
1,       6144,       6144,     1024,     2048, 0x9945fa06
0,          8,          8,        1,   115200, 0x15317942
1,       7168,       7168,     1024,     2048, 0x12e5071a
0,          9,          9,        1,   115200, 0x07803f0e
1,       8192,       8192,       22,       44, 0x7ad110e8
